<?xml version="1.0" encoding="UTF-8" standalone="no"?>
<!-- Created with Inkscape (http://www.inkscape.org/) -->

<svg
   version="1.1"
   id="svg2"
   width="2829.3333"
   height="2829.3333"
   viewBox="0 0 2829.3333 2829.3333"
   sodipodi:docname="3242_R1NUIENBUiAyNTg3LTc5.eps"
   xmlns:inkscape="http://www.inkscape.org/namespaces/inkscape"
   xmlns:sodipodi="http://sodipodi.sourceforge.net/DTD/sodipodi-0.dtd"
   xmlns="http://www.w3.org/2000/svg"
   xmlns:svg="http://www.w3.org/2000/svg">
  <defs
     id="defs6" />
  <sodipodi:namedview
     id="namedview4"
     pagecolor="#ffffff"
     bordercolor="#000000"
     borderopacity="0.25"
     inkscape:showpageshadow="2"
     inkscape:pageopacity="0.0"
     inkscape:pagecheckerboard="0"
     inkscape:deskcolor="#d1d1d1" />
  <g
     id="g8"
     inkscape:groupmode="layer"
     inkscape:label="ink_ext_XXXXXX"
     transform="matrix(1.3333333,0,0,-1.3333333,0,2829.3333)">
    <g
       id="g10"
       transform="scale(0.1)">
      <path
         d="m 17148.7,6206.9 c -70.2,950 -527.7,1301.7 -1759.3,1935.8 -1231.5,633.9 -3046.5,1008.9 -3046.5,1008.9 0,0 -471.8,-933.9 -1778,-933.9 -1451.46,0 -1691.85,943.1 -1691.85,943.1 0,0 -1817.7,-384.2 -3049.22,-1018.1 -1231.56,-634.1 -1689.06,-985.8 -1759.26,-1935.8 -70.51,-950.1 0,-4292.2 0,-4292.2 h 6542.03 6542.1 c 0,0 70.5,3342.1 0,4292.2"
         style="fill:#f9cc4c;fill-opacity:1;fill-rule:nonzero;stroke:none"
         id="path12" />
      <path
         d="m 14028.4,16917.1 c -417.6,1888.4 -2408,2147.1 -3421.8,2147.1 -952.07,0 -3004.18,-258.7 -3421.72,-2147.1 -468.47,-2119.6 348.6,-6754.4 3360.12,-6879.1 v -6.2 c 21,0 40.8,2.7 61.6,3.2 20.9,-0.5 40.7,-3.2 61.7,-3.2 v 6.2 c 3011.5,124.7 3828.8,4759.5 3360.1,6879.1"
         style="fill:#f6857c;fill-opacity:1;fill-rule:nonzero;stroke:none"
         id="path14" />
      <path
         d="m 12511,8629.6 c -492.6,1407.1 -384.8,1942.5 -384.8,1942.5 l -1519.6,-245.2 -1519.33,245.2 c 0,0 107.61,-535.4 -384.97,-1942.5 0,0 255.24,-836.5 1847.2,-875.9 v -4 c 20.3,0 37.3,1.7 57.1,1.7 19.8,0 36.9,-1.7 57.1,-1.7 v 4 c 1592,39.4 1847.3,875.9 1847.3,875.9"
         style="fill:#f6857c;fill-opacity:1;fill-rule:nonzero;stroke:none"
         id="path16" />
      <path
         d="m 7917.19,15428.4 c -80.31,853.4 510.15,1680.1 1152.3,1495.4 678.99,-195.3 1161.11,-923.7 3298.61,-35.2 562.9,233.9 844.3,-439.8 756.5,-1266.7 -87.8,-826.6 369.5,-1504 882.9,-1559.4 0,0 1580.2,5078 -3376.3,5245.2 0,0 -4614.01,342.9 -3569.29,-5023 0,0 957.86,55.3 855.28,1143.7"
         style="fill:#2c3266;fill-opacity:1;fill-rule:nonzero;stroke:none"
         id="path18" />
      <path
         d="m 7761.52,14062.5 c 266.33,-944.2 -232.22,-1035.7 -590.7,-1035.7 -358.24,0 -648.71,426.5 -648.71,1106.6 0,679.9 290.47,965.3 648.71,965.3 358.48,0 438.63,-495.7 590.7,-1036.2"
         style="fill:#f6857c;fill-opacity:1;fill-rule:nonzero;stroke:none"
         id="path20" />
      <path
         d="m 13207.6,13983.5 c -266.1,-944.4 232.4,-1035.7 590.7,-1035.7 358.7,0 649,426.3 649,1106.3 0,680.2 -290.3,965.3 -649,965.3 -358.3,0 -438.4,-495.7 -590.7,-1035.9"
         style="fill:#f6857c;fill-opacity:1;fill-rule:nonzero;stroke:none"
         id="path22" />
    </g>
  </g>
</svg>
